<svg height="512pt" viewBox="0 0 511 512" width="512pt" xmlns="http://www.w3.org/2000/svg"><path d="m511.210938 29.402344c0 1.613281-.136719 3.207031-.382813 4.75-1.003906 6.222656-3.964844 11.777344-8.230469 16.042968-5.320312 5.320313-12.675781 8.609376-20.792968 8.609376h-253.09375c-4.78125 0-9.292969-1.136719-13.289063-3.175782-9.5625-4.84375-16.113281-14.769531-16.113281-26.226562 0-8.125 3.292968-15.472656 8.609375-20.792969 3.425781-3.425781 7.691406-6.011719 12.472656-7.410156 2.628906-.773438 5.421875-1.199219 8.320313-1.199219h253.09375c16.238281 0 29.40625 13.164062 29.40625 29.402344zm0 0" fill="#d2d2d7"/><path d="m511.210938 113.410156v.007813c0 1.617187-.136719 3.199219-.382813 4.742187-2.269531 13.980469-14.398437 24.660156-29.023437 24.660156h-253.09375c-4.347657 0-8.476563-.941406-12.179688-2.636718-10.164062-4.628906-17.222656-14.871094-17.222656-26.765625v-.007813c0-13.351562 8.890625-24.621094 21.082031-28.203125 2.640625-.785156 5.433594-1.199219 8.320313-1.199219h253.09375c16.238281 0 29.40625 13.164063 29.40625 29.402344zm0 0" fill="#d2d2d7"/><path d="m511.210938 196.027344c0 1.617187-.136719 3.210937-.382813 4.75-1.003906 6.222656-3.964844 11.777344-8.230469 16.042968-5.320312 5.320313-12.675781 8.609376-20.792968 8.609376h-253.09375c-4.449219 0-8.660157-.980469-12.4375-2.761719-10.019532-4.679688-16.964844-14.851563-16.964844-26.640625 0-8.125 3.292968-15.472656 8.609375-20.792969 3.425781-3.421875 7.691406-6.011719 12.472656-7.410156 2.628906-.773438 5.421875-1.199219 8.320313-1.199219h253.09375c16.238281 0 29.40625 13.164062 29.40625 29.402344zm0 0" fill="#d2d2d7"/><path d="m511.210938 29.402344c0 1.613281-.136719 3.207031-.382813 4.75-2.640625.777344-5.433594 1.191406-8.324219 1.191406h-253.09375c-4.78125 0-9.292968-1.140625-13.289062-3.179688-9.5625-4.839843-16.113282-14.765624-16.113282-26.222656 0-1.617187.132813-3.199218.382813-4.742187 2.628906-.773438 5.421875-1.199219 8.320313-1.199219h253.09375c16.238281 0 29.40625 13.164062 29.40625 29.402344zm0 0" fill="#ebebf0"/><path d="m511.210938 113.410156v.007813c0 1.617187-.136719 3.199219-.382813 4.742187-2.640625.785156-5.433594 1.199219-8.324219 1.199219h-253.09375c-4.347656 0-8.476562-.941406-12.179687-2.640625-10.164063-4.625-17.222657-14.871094-17.222657-26.761719v-.011719c0-1.613281.132813-3.195312.382813-4.738281 2.640625-.785156 5.433594-1.199219 8.320313-1.199219h253.09375c16.238281 0 29.40625 13.164063 29.40625 29.402344zm0 0" fill="#ebebf0"/><path d="m511.210938 196.027344c0 1.617187-.136719 3.210937-.382813 4.75-2.640625.777344-5.433594 1.191406-8.324219 1.191406h-253.09375c-4.449218 0-8.664062-.984375-12.441406-2.761719-10.015625-4.679687-16.960938-14.851562-16.960938-26.640625 0-1.613281.132813-3.199218.382813-4.742187 2.628906-.773438 5.421875-1.199219 8.320313-1.199219h253.09375c16.238281 0 29.40625 13.164062 29.40625 29.402344zm0 0" fill="#ebebf0"/><path d="m435.339844 0-15.628906 35.34375-10.378907 23.460938h-180.621093c-4.78125 0-9.292969-1.136719-13.285157-3.175782-9.566406-4.84375-16.117187-14.769531-16.117187-26.226562 0-8.125 3.292968-15.472656 8.613281-20.792969 3.425781-3.425781 7.6875-6.011719 12.46875-7.410156 2.628906-.773438 5.425781-1.199219 8.320313-1.199219zm0 0" fill="#6990d7"/><path d="m399.167969 84.007812-16.175781 35.351563-10.734376 23.460937h-143.546874c-4.347657 0-8.476563-.941406-12.179688-2.636718-10.164062-4.628906-17.222656-14.871094-17.222656-26.765625v-.007813c0-13.351562 8.890625-24.621094 21.082031-28.203125 2.640625-.785156 5.433594-1.199219 8.320313-1.199219zm0 0" fill="#f44545"/><path d="m473.382812 166.625-15.410156 35.34375-10.226562 23.460938h-219.035156c-4.449219 0-8.660157-.980469-12.4375-2.761719-10.019532-4.679688-16.964844-14.851563-16.964844-26.640625 0-8.125 3.292968-15.472656 8.609375-20.792969 3.425781-3.421875 7.691406-6.011719 12.472656-7.410156 2.628906-.773438 5.421875-1.199219 8.320313-1.199219zm0 0" fill="#1ed688"/><path d="m435.339844 0-15.628906 35.34375h-170.300782c-4.78125 0-9.292968-1.140625-13.289062-3.179688-9.5625-4.839843-16.113282-14.765624-16.113282-26.222656 0-1.617187.136719-3.199218.382813-4.742187 2.628906-.773438 5.425781-1.199219 8.320313-1.199219zm0 0" fill="#91aee2"/><path d="m399.167969 84.007812-16.175781 35.351563h-133.582032c-4.347656 0-8.476562-.941406-12.179687-2.640625-10.164063-4.625-17.222657-14.871094-17.222657-26.761719v-.011719c0-1.613281.132813-3.195312.382813-4.738281 2.640625-.785156 5.433594-1.199219 8.320313-1.199219zm0 0" fill="#fb5858"/><path d="m473.382812 166.625-15.410156 35.34375h-208.5625c-4.449218 0-8.664062-.984375-12.441406-2.761719-10.015625-4.679687-16.960938-14.851562-16.960938-26.640625 0-1.613281.132813-3.199218.382813-4.742187 2.628906-.773438 5.421875-1.199219 8.320313-1.199219zm0 0" fill="#35e298"/><path d="m34.921875 329.859375s-.644531 30.113281-33.5625 53.875c-.839844.605469-1.109375 1.734375-.605469 2.644531 3.277344 5.925782 16.738282 26.230469 49.355469 30.730469 0 0 136.621094-.878906 136.621094 0 32.613281-4.496094 46.082031-24.804687 49.355469-30.726563.503906-.914062.230468-2.042968-.605469-2.648437-22.425781-16.1875-29.878907-41.980469-32.339844-53.875zm0 0" fill="#f29500"/><path d="m88.921875 367.910156h64.910156v110.945313h-64.910156zm0 0" fill="#f2bb88"/><path d="m71.058594 320.320312c0 13.878907-11.25 25.128907-25.125 25.128907-13.878906 0-25.128906-11.25-25.128906-25.128907 0-13.878906 11.25-25.128906 25.128906-25.128906 13.875 0 25.125 11.25 25.125 25.128906zm0 0" fill="#f2bb88"/><path d="m207.449219 320.324219c0 13.878906-11.25 25.128906-25.128907 25.128906-13.875 0-25.128906-11.25-25.128906-25.128906 0-13.878907 11.253906-25.128907 25.128906-25.128907 13.878907 0 25.128907 11.25 25.128907 25.128907zm0 0" fill="#f2bb88"/><path d="m183.753906 221.378906v116.847656c0 18.035157-12.535156 34.371094-27.136718 46.191407-10.03125 8.117187-21.027344 14.113281-29.609376 17.074219-3.910156 1.347656-7.324218 2.066406-9.90625 2.066406-16.519531-.007813-66.652343-29.253906-66.652343-65.332032v-116.847656c0-11.914062 9.652343-21.570312 21.566406-21.570312h90.171875c11.910156 0 21.566406 9.65625 21.566406 21.570312zm0 0" fill="#f2bb88"/><path d="m183.753906 221.378906v116.847656c0 18.035157-12.535156 34.371094-27.136718 46.191407-10.03125 8.117187-21.027344 14.113281-29.609376 17.074219-21.074218-7.265626-56.75-32.835938-56.75-63.265626v-116.847656c0-11.914062 9.65625-21.570312 21.570313-21.570312h70.355469c11.914062 0 21.570312 9.65625 21.570312 21.570312zm0 0" fill="#f2d1a5"/><path d="m118.417969 364.828125c-10.0625 0-18.246094-8.183594-18.246094-18.246094 0-2.734375 2.21875-4.953125 4.953125-4.953125 2.738281 0 4.953125 2.21875 4.953125 4.953125 0 4.601563 3.742187 8.34375 8.34375 8.34375 4.597656 0 8.339844-3.742187 8.339844-8.34375 0-2.734375 2.214843-4.953125 4.953125-4.953125 2.734375 0 4.953125 2.21875 4.953125 4.953125-.003907 10.0625-8.1875 18.246094-18.25 18.246094zm0 0" fill="#f29500"/><path d="m160.472656 317.390625c0 4.359375-3.535156 7.898437-7.894531 7.898437-4.363281 0-7.898437-3.539062-7.898437-7.898437s3.535156-7.898437 7.898437-7.898437c4.359375 0 7.894531 3.539062 7.894531 7.898437zm0 0" fill="#f29500"/><path d="m167.90625 305.960938c-.902344 0-1.8125-.246094-2.632812-.761719-6.160157-3.871094-18.210938-2.515625-22.332032-1.667969-2.675781.554688-5.296875-1.167969-5.851562-3.84375-.554688-2.675781 1.160156-5.296875 3.832031-5.851562 1.914063-.398438 18.992187-3.703126 29.625 2.980468 2.3125 1.453125 3.011719 4.511719 1.554687 6.828125-.9375 1.496094-2.550781 2.316407-4.195312 2.316407zm0 0" fill="#f29500"/><path d="m92.160156 317.390625c0 4.359375-3.539062 7.898437-7.898437 7.898437s-7.898438-3.539062-7.898438-7.898437 3.539063-7.898437 7.898438-7.898437 7.898437 3.539062 7.898437 7.898437zm0 0" fill="#f29500"/><path d="m199.765625 241.890625v45.191406c0 3.882813-3.007813 7.042969-6.722656 7.042969-11.980469 0-22.84375-7.042969-27.730469-17.988281l-6.742188-15.078125c-2.125-4.75-8.953124-4.535156-10.761718.351562-3.148438 8.476563-8.269532 16.078125-14.949219 22.160156l-.519531.464844c-12.257813 11.171875-28.046875 17.078125-44.113282 17.078125-7.40625 0-14.871093-1.246093-22.070312-3.828125-4.292969-1.550781-8.816406 1.640625-8.816406 6.207032v58.148437c0 2.796875-1.136719 5.320313-2.964844 7.15625-1.839844 1.828125-4.367188 2.964844-7.167969 2.964844-5.585937 0-10.121093-4.535157-10.121093-10.121094 0-.199219 0-.300781-.007813-85.867187 0-36.617188-.03125-33.550782.019531-35.515626.804688-29.347656 24.257813-52.46875 52.285156-52.46875h58.078126c28.335937 0 52.304687 23.742188 52.304687 54.101563zm0 0" fill="#ffa90b"/><path d="m219.269531 466.855469v34.445312c0 5.910157-4.789062 10.699219-10.699219 10.699219h-180.296874c-5.910157 0-10.707032-4.789062-10.707032-10.699219v-34.445312c0-27.816407 21.304688-50.675781 48.480469-53.128907 1.609375-.152343 3.234375-.230468 4.875-.230468h16.691406c.476563 0 .933594-.046875 1.382813-.136719l.109375.164063.53125.792968 20.382812 30.703125c4.492188 6.765625 14.304688 7.089844 19.238281.640625l24.585938-32.160156h12.066406c1.722656 0 3.410156.089844 5.074219.25 27.097656 2.539062 48.285156 25.351562 48.285156 53.105469zm0 0" fill="#2e5aac"/><path d="m219.269531 466.855469v34.445312c0 5.910157-4.789062 10.699219-10.699219 10.699219h-160.484374c-5.914063 0-10.707032-4.789062-10.707032-10.699219v-34.445312c0-27.816407 21.304688-50.675781 48.480469-53.128907 1.074219-.097656 2.160156-.171874 3.246094-.203124l.53125.792968 20.382812 30.699219c4.492188 6.769531 14.304688 7.09375 19.238281.640625l24.585938-32.160156h12.066406c1.722656 0 3.410156.09375 5.074219.25 27.097656 2.542968 48.285156 25.355468 48.285156 53.109375zm0 0" fill="#4172cc"/><path d="m199.765625 241.890625v27.5c-13.488281-2.269531-25.105469-10.335937-30.835937-21.871094l-9.378907-18.878906c-2.964843-5.957031-12.472656-5.679687-14.992187.433594-4.378906 10.617187-11.515625 20.128906-20.820313 27.761719l-.710937.585937c-17.070313 13.984375-39.066406 21.378906-61.425782 21.378906-8.199218 0-16.449218-1.003906-24.523437-3.027343 0-36.617188-.03125-33.550782.019531-35.515626.804688-29.347656 24.257813-52.46875 52.285156-52.46875h58.078126c28.335937 0 52.304687 23.742188 52.304687 54.101563zm0 0" fill="#ffb52d"/><path d="m256.996094 0-26.007813 58.804688h-2.277343c-4.78125 0-9.292969-1.136719-13.285157-3.175782l24.589844-55.628906zm0 0" fill="#2e5aac"/><path d="m301.582031 0-26.007812 58.804688h-16.972657l25.996094-58.804688zm0 0" fill="#2e5aac"/><path d="m346.167969 0-26.007813 58.804688h-16.972656l25.996094-58.804688zm0 0" fill="#2e5aac"/><path d="m390.753906 0-26.007812 58.804688h-16.972656l26.007812-58.804688zm0 0" fill="#2e5aac"/><path d="m435.339844 0-26.007813 58.804688h-16.964843l25.996093-58.804688zm0 0" fill="#2e5aac"/><g fill="#169b62"><path d="m256.902344 166.625-24.941406 58.804688h-3.25c-4.449219 0-8.660157-.980469-12.4375-2.761719l23.769531-56.042969zm0 0"/><path d="m299.792969 166.625-24.941407 58.804688h-16.871093l24.941406-58.804688zm0 0"/><path d="m342.671875 166.625-24.945313 58.804688h-16.871093l24.945312-58.804688zm0 0"/><path d="m385.558594 166.625-24.953125 58.804688h-16.859375l24.941406-58.804688zm0 0"/><path d="m428.433594 166.625-24.941406 58.804688h-16.867188l24.941406-58.804688zm0 0"/><path d="m473.382812 166.625-25.636718 58.804688h-16.929688l25.636719-58.804688zm0 0"/></g><path d="m259.304688 84.007812-26.90625 58.8125h-3.6875c-4.34375 0-8.472657-.941406-12.179688-2.636718l25.699219-56.175782zm0 0" fill="#c42d2d"/><path d="m305.917969 84.007812-26.90625 58.8125h-17.078125l26.917968-58.8125zm0 0" fill="#c42d2d"/><path d="m352.542969 84.007812-26.90625 58.8125h-17.078125l26.917968-58.8125zm0 0" fill="#c42d2d"/><path d="m399.167969 84.007812-26.910157 58.8125h-17.078124l26.921874-58.8125zm0 0" fill="#c42d2d"/><path d="m230.988281 58.804688 10.816407-24.464844c-1.976563-.527344-3.882813-1.261719-5.683594-2.175782-2.917969-1.476562-5.546875-3.421874-7.792969-5.742187l-12.902344 29.207031c3.992188 2.039063 8.503907 3.175782 13.285157 3.175782zm0 0" fill="#203e76"/><path d="m285.957031 35.34375h-16.984375l-10.371094 23.460938h16.972657zm0 0" fill="#203e76"/><path d="m330.539062 35.34375h-16.984374l-10.367188 23.460938h16.972656zm0 0" fill="#203e76"/><path d="m375.125 35.34375h-16.972656l-10.378906 23.460938h16.972656zm0 0" fill="#203e76"/><path d="m392.367188 58.804688h16.964843l10.378907-23.460938h-16.972657zm0 0" fill="#203e76"/><path d="m228.679688 193.410156-12.40625 29.257813c3.777343 1.78125 7.988281 2.761719 12.4375 2.761719h3.25l10.320312-24.332032c-1.855469-.464844-3.625-1.09375-5.3125-1.890625-3.09375-1.449219-5.894531-3.417969-8.289062-5.796875zm0 0" fill="#127d4f"/><path d="m257.980469 225.429688h16.871093l9.953126-23.460938h-16.867188zm0 0" fill="#127d4f"/><path d="m300.855469 225.429688h16.871093l9.957032-23.460938h-16.867188zm0 0" fill="#127d4f"/><path d="m343.746094 225.429688h16.859375l9.957031-23.460938h-16.859375zm0 0" fill="#127d4f"/><path d="m386.625 225.429688h16.867188l9.957031-23.460938h-16.871094zm0 0" fill="#127d4f"/><path d="m441.039062 201.96875-10.222656 23.460938h16.929688l10.226562-23.460938zm0 0" fill="#127d4f"/><path d="m229.582031 111.660156-13.050781 28.523438c3.707031 1.695312 7.835938 2.636718 12.179688 2.636718h3.6875l11.011718-24.070312c-2.152344-.445312-4.222656-1.140625-6.179687-2.03125-2.816407-1.28125-5.390625-3-7.648438-5.058594zm0 0" fill="#af2727"/><path d="m261.933594 142.820312h17.078125l10.730469-23.460937h-17.066407zm0 0" fill="#af2727"/><path d="m308.558594 142.820312h17.078125l10.730469-23.460937h-17.066407zm0 0" fill="#af2727"/><path d="m355.179688 142.820312h17.078124l10.734376-23.460937h-17.066407zm0 0" fill="#af2727"/></svg>